# xmcd CD database file
# Copyright (C) 1993-1998 Ti Kan
#
# Track frame offsets:
#	150
#	12368
#	23505
#	37753
#	50518
#	63433
#	76365
#	90418
#	105360
#	119418
#	133858
#	147810
#	161188
#	173505
#	186658
#	199930
#
# Disc length: 2854 seconds
#
# Revision: 1
# Processed by: cddbd v1.4b41PL1 Copyright (c) Steve Scherf et al.
# Submitted via: xmcd 2.2 PL0
#
DISCID=d00b2410
DTITLE=Lonnie Johnson/Masters of Country Blues Guitar
DYEAR=1900
DGENRE=
TTITLE0=Mr. Johnson's Blues
TTITLE1=Love Story Blues
TTITLE2=To Do This, You Got To Know How
TTITLE3=Blues In G
TTITLE4=Away Down In The Allley Blues
TTITLE5=Sweet Woman You Can't Go Wrong
TTITLE6=I'm So Tired Of Living All Alone
TTITLE7=Bitin' Flea Blues
TTITLE8=Life Saver Blues
TTITLE9=Blue Ghost Blues
TTITLE10=Uncle Ned Don't Use Your Head
TTITLE11=Cat You Been Messin' Around
TTITLE12=There Is No Justice
TTITLE13=Go Back To Your No Good Man
TTITLE14=Stomping 'Em Along Slow
TTITLE15=Woke Up With The Blues In My Fingers
EXTD=
EXTT0=
EXTT1=
EXTT2=
EXTT3=
EXTT4=
EXTT5=
EXTT6=
EXTT7=
EXTT8=
EXTT9=
EXTT10=
EXTT11=
EXTT12=
EXTT13=
EXTT14=
EXTT15=
PLAYORDER=
